# xmcd
# Track frame offsets:
# 150
# 16809
# 33472
# 55780
# 73031
# 91191
# 107850
# 132581
# 150516
# 160197
# 177830
# 196063
# 217256
# 238075
# 262458
# 277916
# 296599
#
# Disc length: 4178 seconds
# Revision: 0
# Processed by: cddbd v1.5.1PL0 Copyright (c) Steve Scherf et al.
# Submitted via: VisiTrax 2.9.10.228 - For more info visit www.synapsa.com
#
DISCID=f9105011
DTITLE=Hill, Faith - Country Karaoke Classics  CKC008
DYEAR=1900
DGENRE=Karaoke
TTITLE0=If My Heart Had Wings
TTITLE1=There Will Come A Day
TTITLE2=But I Will
TTITLE3=I Can't Do That Anymore
TTITLE4=Someone Else's Dream
TTITLE5=What's In It For Me
TTITLE6=Let Me Let Go
TTITLE7=Star Spangled Banner
TTITLE8=You Can't Lose Me
TTITLE9=It Will Be Me
TTITLE10=If I Should Fall Behind
TTITLE11=That's How Love Moves
TTITLE12=One
TTITLE13=You're Still Here
TTITLE14=When The Lights Go Down
TTITLE15=Cry
TTITLE16=There You'll Be
EXTD=
EXTT0=
EXTT1=
EXTT2=
EXTT3=
EXTT4=
EXTT5=
EXTT6=
EXTT7=
EXTT8=
EXTT9=
EXTT10=
EXTT11=
EXTT12=
EXTT13=
EXTT14=
EXTT15=
EXTT16=
PLAYORDER=
